# xmcd
#
# Track frame offsets: 
#        150
#        15074
#        33246
#        38686
#        64483
#        86041
#        106918
#        119163
#        152405
#        182877
#        199959
#        241061
#        258718
#        280626
#        300531
#        308953
#
# Disc length: 4269 seconds
#
# Revision: 0
# Processed by: cddbd v1.5.2PL0 Copyright (c) Steve Scherf et al.
# Submitted via: ExactAudioCopy v0.95b3
#
DISCID=d210ab10
DTITLE=Csny  - Studio Archives 1969  FLAC
DYEAR=1900
DGENRE=
TTITLE0=Crosby, Stills, Nash and Young - Everybody's Talkin'
TTITLE1=Crosby, Stills, Nash and Young - How Have You Been
TTITLE2=Crosby, Stills, Nash and Young - Black Queen riff \\ dialogue
TTITLE3=Crosby, Stills, Nash and Young - Triad (Acoustic Studio Take)
TTITLE4=Crosby, Stills, Nash and Young - Almost Cut My Hair (Acoustic Ta
TTITLE4=ke) - Wally Heider's, San Francisco
TTITLE5=Crosby, Stills, Nash and Young - Everyday We Live - Wally Heider
TTITLE5='s, San Francisco
TTITLE6=Crosby, Stills, Nash and Young - Sea Of Madness - Wally Heider's
TTITLE6=, San Francisco
TTITLE7=Crosby, Stills, Nash and Young - The Lee Shore - Stephen Stills 
TTITLE7=Home Studio
TTITLE8=Crosby, Stills, Nash and Young - Everybody I Love You - Wally He
TTITLE8=ider's, San Francisco
TTITLE9=Crosby, Stills, Nash and Young - I'll Be There - Wally Heider's,
TTITLE9=San Francisco
TTITLE10=Crosby, Stills, Nash and Young - Blackbird - Wally Heider's, Sa
TTITLE10=n Francisco
TTITLE11=Crosby, Stills, Nash and Young - Ivory Tower - Wally Heider's, 
TTITLE11=San Francisco
TTITLE12=Crosby, Stills, Nash and Young - 30 Dollar Fine - Wally Heider'
TTITLE12=s, San Francisco
TTITLE13=Crosby, Stills, Nash and Young - Everybody's Been Burned
TTITLE14=Crosby, Stills, Nash and Young - You're Wrong Baby - Wally Heid
TTITLE14=er's, San Francisco
TTITLE15=Crosby, Stills, Nash and Young - Everybody's Alone - Wally Heid
TTITLE15=er's, San Francisco
EXTD=
EXTT0=
EXTT1=
EXTT2=
EXTT3=
EXTT4=
EXTT5=
EXTT6=
EXTT7=
EXTT8=
EXTT9=
EXTT10=
EXTT11=
EXTT12=
EXTT13=
EXTT14=
EXTT15=
PLAYORDER=
